<mxfile host="app.diagrams.net" modified="2024-03-24T04:16:12.601Z" agent="Mozilla/5.0 (Windows NT 10.0; Win64; x64) AppleWebKit/537.36 (KHTML, like Gecko) Chrome/122.0.0.0 Safari/537.36 Edg/122.0.0.0" etag="d__wl-CbsjDl7rvzvLq1" version="24.1.0" type="google">
  <diagram name="Page-1" id="dPWZ9QLUwkn5sqok5Snd">
    <mxGraphModel grid="1" page="1" gridSize="10" guides="1" tooltips="1" connect="1" arrows="1" fold="1" pageScale="1" pageWidth="850" pageHeight="1100" math="0" shadow="0">
      <root>
        <mxCell id="0" />
        <mxCell id="1" parent="0" />
        <mxCell id="FaobPczqKIZyAauHlg8u-1" value="" style="rounded=0;whiteSpace=wrap;html=1;" vertex="1" parent="1">
          <mxGeometry x="180" y="70" width="490" height="570" as="geometry" />
        </mxCell>
        <mxCell id="FaobPczqKIZyAauHlg8u-2" value="Backend&lt;br&gt;&lt;span style=&quot;font-weight: normal;&quot;&gt;Spring Boot Application&lt;/span&gt;" style="text;html=1;align=center;verticalAlign=middle;whiteSpace=wrap;rounded=0;fontStyle=1" vertex="1" parent="1">
          <mxGeometry x="340" y="75" width="170" height="30" as="geometry" />
        </mxCell>
        <mxCell id="xHkF206jvhHwymHsm1X9-9" value="Return" style="rounded=0;orthogonalLoop=1;jettySize=auto;html=1;exitX=0.81;exitY=0.006;exitDx=0;exitDy=0;exitPerimeter=0;dashed=1;entryX=0.716;entryY=0.996;entryDx=0;entryDy=0;entryPerimeter=0;" edge="1" parent="1" source="FaobPczqKIZyAauHlg8u-3" target="FaobPczqKIZyAauHlg8u-9">
          <mxGeometry relative="1" as="geometry">
            <mxPoint x="340" y="590" as="targetPoint" />
          </mxGeometry>
        </mxCell>
        <mxCell id="FaobPczqKIZyAauHlg8u-3" value="Database" style="shape=datastore;whiteSpace=wrap;html=1;" vertex="1" parent="1">
          <mxGeometry x="246" y="746" width="124" height="144" as="geometry" />
        </mxCell>
        <mxCell id="xHkF206jvhHwymHsm1X9-2" style="edgeStyle=orthogonalEdgeStyle;rounded=0;orthogonalLoop=1;jettySize=auto;html=1;" edge="1" parent="1" source="FaobPczqKIZyAauHlg8u-4" target="FaobPczqKIZyAauHlg8u-5">
          <mxGeometry relative="1" as="geometry">
            <Array as="points">
              <mxPoint x="270" y="160" />
            </Array>
          </mxGeometry>
        </mxCell>
        <mxCell id="xHkF206jvhHwymHsm1X9-3" style="edgeStyle=orthogonalEdgeStyle;rounded=0;orthogonalLoop=1;jettySize=auto;html=1;" edge="1" parent="1" source="FaobPczqKIZyAauHlg8u-4" target="FaobPczqKIZyAauHlg8u-6">
          <mxGeometry relative="1" as="geometry">
            <Array as="points">
              <mxPoint x="480" y="227" />
              <mxPoint x="510" y="227" />
            </Array>
          </mxGeometry>
        </mxCell>
        <mxCell id="FaobPczqKIZyAauHlg8u-4" value="API Layer" style="rounded=0;whiteSpace=wrap;html=1;" vertex="1" parent="1">
          <mxGeometry x="343" y="130" width="165" height="60" as="geometry" />
        </mxCell>
        <mxCell id="xHkF206jvhHwymHsm1X9-4" style="edgeStyle=orthogonalEdgeStyle;rounded=0;orthogonalLoop=1;jettySize=auto;html=1;" edge="1" parent="1" source="FaobPczqKIZyAauHlg8u-5" target="FaobPczqKIZyAauHlg8u-7">
          <mxGeometry relative="1" as="geometry">
            <Array as="points">
              <mxPoint x="270" y="410" />
            </Array>
          </mxGeometry>
        </mxCell>
        <mxCell id="xHkF206jvhHwymHsm1X9-17" style="edgeStyle=orthogonalEdgeStyle;rounded=0;orthogonalLoop=1;jettySize=auto;html=1;exitX=0.75;exitY=0;exitDx=0;exitDy=0;entryX=0.25;entryY=1;entryDx=0;entryDy=0;dashed=1;" edge="1" parent="1" source="FaobPczqKIZyAauHlg8u-5" target="FaobPczqKIZyAauHlg8u-4">
          <mxGeometry relative="1" as="geometry" />
        </mxCell>
        <mxCell id="FaobPczqKIZyAauHlg8u-5" value="REST Controllers" style="rounded=0;whiteSpace=wrap;html=1;" vertex="1" parent="1">
          <mxGeometry x="230" y="263" width="165" height="60" as="geometry" />
        </mxCell>
        <mxCell id="xHkF206jvhHwymHsm1X9-5" style="edgeStyle=orthogonalEdgeStyle;rounded=0;orthogonalLoop=1;jettySize=auto;html=1;" edge="1" parent="1" source="FaobPczqKIZyAauHlg8u-6" target="FaobPczqKIZyAauHlg8u-7">
          <mxGeometry relative="1" as="geometry">
            <Array as="points">
              <mxPoint x="510" y="359" />
              <mxPoint x="480" y="359" />
            </Array>
          </mxGeometry>
        </mxCell>
        <mxCell id="xHkF206jvhHwymHsm1X9-18" style="edgeStyle=orthogonalEdgeStyle;rounded=0;orthogonalLoop=1;jettySize=auto;html=1;exitX=0.75;exitY=0;exitDx=0;exitDy=0;entryX=1;entryY=0.5;entryDx=0;entryDy=0;dashed=1;" edge="1" parent="1" source="FaobPczqKIZyAauHlg8u-6" target="FaobPczqKIZyAauHlg8u-4">
          <mxGeometry relative="1" as="geometry" />
        </mxCell>
        <mxCell id="FaobPczqKIZyAauHlg8u-6" value="WebSocket Controllers" style="rounded=0;whiteSpace=wrap;html=1;" vertex="1" parent="1">
          <mxGeometry x="470" y="263" width="165" height="60" as="geometry" />
        </mxCell>
        <mxCell id="xHkF206jvhHwymHsm1X9-6" style="edgeStyle=orthogonalEdgeStyle;rounded=0;orthogonalLoop=1;jettySize=auto;html=1;" edge="1" parent="1" source="FaobPczqKIZyAauHlg8u-7" target="FaobPczqKIZyAauHlg8u-9">
          <mxGeometry relative="1" as="geometry">
            <Array as="points">
              <mxPoint x="270" y="440" />
            </Array>
          </mxGeometry>
        </mxCell>
        <mxCell id="xHkF206jvhHwymHsm1X9-7" style="edgeStyle=orthogonalEdgeStyle;rounded=0;orthogonalLoop=1;jettySize=auto;html=1;exitX=0.75;exitY=1;exitDx=0;exitDy=0;" edge="1" parent="1" source="FaobPczqKIZyAauHlg8u-7">
          <mxGeometry relative="1" as="geometry">
            <mxPoint x="432.52380952380963" y="455" as="sourcePoint" />
            <mxPoint x="506.9999999999998" y="528.9999999999999" as="targetPoint" />
            <Array as="points">
              <mxPoint x="470" y="455" />
              <mxPoint x="470" y="492" />
              <mxPoint x="507" y="492" />
            </Array>
          </mxGeometry>
        </mxCell>
        <mxCell id="xHkF206jvhHwymHsm1X9-15" style="edgeStyle=orthogonalEdgeStyle;rounded=0;orthogonalLoop=1;jettySize=auto;html=1;exitX=0.25;exitY=0;exitDx=0;exitDy=0;entryX=0.75;entryY=1;entryDx=0;entryDy=0;dashed=1;" edge="1" parent="1" source="FaobPczqKIZyAauHlg8u-7" target="FaobPczqKIZyAauHlg8u-5">
          <mxGeometry relative="1" as="geometry" />
        </mxCell>
        <mxCell id="xHkF206jvhHwymHsm1X9-16" style="edgeStyle=orthogonalEdgeStyle;rounded=0;orthogonalLoop=1;jettySize=auto;html=1;exitX=1;exitY=0.25;exitDx=0;exitDy=0;entryX=0.75;entryY=1;entryDx=0;entryDy=0;dashed=1;" edge="1" parent="1" source="FaobPczqKIZyAauHlg8u-7" target="FaobPczqKIZyAauHlg8u-6">
          <mxGeometry relative="1" as="geometry" />
        </mxCell>
        <mxCell id="FaobPczqKIZyAauHlg8u-7" value="Service Layer" style="rounded=0;whiteSpace=wrap;html=1;" vertex="1" parent="1">
          <mxGeometry x="343" y="395" width="165" height="60" as="geometry" />
        </mxCell>
        <mxCell id="xHkF206jvhHwymHsm1X9-10" value="Fetch" style="rounded=0;orthogonalLoop=1;jettySize=auto;html=1;exitX=0.25;exitY=1;exitDx=0;exitDy=0;entryX=0.293;entryY=0.002;entryDx=0;entryDy=0;entryPerimeter=0;" edge="1" parent="1">
          <mxGeometry relative="1" as="geometry">
            <mxPoint x="506.75" y="589" as="sourcePoint" />
            <mxPoint x="507.5300000000002" y="766.24" as="targetPoint" />
          </mxGeometry>
        </mxCell>
        <mxCell id="xHkF206jvhHwymHsm1X9-14" style="edgeStyle=orthogonalEdgeStyle;rounded=0;orthogonalLoop=1;jettySize=auto;html=1;exitX=0.75;exitY=0;exitDx=0;exitDy=0;dashed=1;" edge="1" parent="1" source="FaobPczqKIZyAauHlg8u-8" target="FaobPczqKIZyAauHlg8u-7">
          <mxGeometry relative="1" as="geometry">
            <Array as="points">
              <mxPoint x="583" y="440" />
            </Array>
          </mxGeometry>
        </mxCell>
        <mxCell id="FaobPczqKIZyAauHlg8u-8" value="PLC Integration Layer" style="rounded=0;whiteSpace=wrap;html=1;" vertex="1" parent="1">
          <mxGeometry x="459.5" y="529" width="165" height="60" as="geometry" />
        </mxCell>
        <mxCell id="xHkF206jvhHwymHsm1X9-12" style="edgeStyle=orthogonalEdgeStyle;rounded=0;orthogonalLoop=1;jettySize=auto;html=1;exitX=0.75;exitY=0;exitDx=0;exitDy=0;entryX=0.25;entryY=1;entryDx=0;entryDy=0;dashed=1;" edge="1" parent="1" source="FaobPczqKIZyAauHlg8u-9" target="FaobPczqKIZyAauHlg8u-7">
          <mxGeometry relative="1" as="geometry" />
        </mxCell>
        <mxCell id="FaobPczqKIZyAauHlg8u-9" value="Repository Layer" style="rounded=0;whiteSpace=wrap;html=1;" vertex="1" parent="1">
          <mxGeometry x="230" y="529" width="165" height="60" as="geometry" />
        </mxCell>
        <mxCell id="xHkF206jvhHwymHsm1X9-11" value="Return" style="rounded=0;orthogonalLoop=1;jettySize=auto;html=1;exitX=0.684;exitY=-0.001;exitDx=0;exitDy=0;entryX=0.75;entryY=1;entryDx=0;entryDy=0;dashed=1;exitPerimeter=0;" edge="1" parent="1">
          <mxGeometry relative="1" as="geometry">
            <mxPoint x="581.6399999999999" y="765.8800000000001" as="sourcePoint" />
            <mxPoint x="581.25" y="589" as="targetPoint" />
          </mxGeometry>
        </mxCell>
        <mxCell id="xHkF206jvhHwymHsm1X9-1" value="" style="shape=image;verticalLabelPosition=bottom;labelBackgroundColor=default;verticalAlign=top;aspect=fixed;imageAspect=0;image=https://tkld.com.vn/wp-content/uploads/2021/08/plc-s7-1200-cpu-1215fc.jpg;" vertex="1" parent="1">
          <mxGeometry x="440" y="766" width="210" height="120" as="geometry" />
        </mxCell>
        <mxCell id="xHkF206jvhHwymHsm1X9-8" value="Query" style="rounded=0;orthogonalLoop=1;jettySize=auto;html=1;entryX=0.225;entryY=0.023;entryDx=0;entryDy=0;entryPerimeter=0;" edge="1" parent="1" target="FaobPczqKIZyAauHlg8u-3">
          <mxGeometry relative="1" as="geometry">
            <mxPoint x="274" y="590" as="sourcePoint" />
            <mxPoint x="270" y="750" as="targetPoint" />
          </mxGeometry>
        </mxCell>
      </root>
    </mxGraphModel>
  </diagram>
</mxfile>
